<svg xmlns="http://www.w3.org/2000/svg" viewBox="0 0 880 420"
  style="max-width:100%" role="img" aria-label="My ETA 구조: React 클라이언트, FastAPI, 외부 API 어댑터 4종, 개인화 ETA 엔진">
  <rect width="880" height="420" rx="12" fill="#14161f"/>
  <defs>
    <marker id="a" viewBox="0 0 10 10" refX="9" refY="5" markerWidth="7" markerHeight="7" orient="auto-start-reverse">
      <path d="M0 0 L10 5 L0 10 z" fill="#8a90a3"/>
    </marker>
  </defs>
  <style>
    .box{fill:#1d2029;stroke:#3a3f4f;stroke-width:1.5}
    .t{fill:#e8e9ee;font:600 14px 'Pretendard',-apple-system,sans-serif}
    .s{fill:#9aa0b0;font:11px 'Pretendard',-apple-system,sans-serif}
    .m{fill:#9aa0b0;font:11px ui-monospace,Menlo,monospace}
    .ln{stroke:#8a90a3;stroke-width:1.5;fill:none}
  </style>
  <text x="24" y="36" class="m">개인화 ETA — 표준 속도가 아니라 그 사람의 속도</text>

  <rect x="24" y="150" width="150" height="64" rx="10" class="box"/>
  <text x="99" y="177" text-anchor="middle" class="t">React 클라이언트</text>
  <text x="99" y="195" text-anchor="middle" class="s">지도 · 경로 안내 (팀)</text>

  <rect x="250" y="150" width="190" height="64" rx="10" fill="#1d2029" stroke="#4fd193" stroke-width="1.5"/>
  <text x="345" y="177" text-anchor="middle" class="t">FastAPI /api/v1</text>
  <text x="345" y="195" text-anchor="middle" class="s">백엔드 전담 영역</text>

  <line x1="174" y1="174" x2="248" y2="174" class="ln" marker-end="url(#a)"/>
  <path d="M 250 196 C 220 226 220 226 176 202" class="ln" stroke-dasharray="4 4" marker-end="url(#a)"/>
  <text x="212" y="240" text-anchor="middle" class="s">일반 ETA + 개인화 ETA</text>

  <rect x="540" y="48" width="170" height="44" rx="10" class="box"/>
  <text x="625" y="75" text-anchor="middle" class="t">TMAP 경로</text>
  <rect x="540" y="108" width="170" height="44" rx="10" class="box"/>
  <text x="625" y="135" text-anchor="middle" class="t">서울 버스 · 저상버스</text>
  <rect x="540" y="168" width="170" height="44" rx="10" class="box"/>
  <text x="625" y="195" text-anchor="middle" class="t">지하철 · 엘리베이터</text>
  <rect x="540" y="228" width="170" height="44" rx="10" class="box"/>
  <text x="625" y="255" text-anchor="middle" class="t">Kakao 장소 검색</text>
  <line x1="440" y1="164" x2="538" y2="72" class="ln" marker-end="url(#a)"/>
  <line x1="440" y1="176" x2="538" y2="130" class="ln" marker-end="url(#a)"/>
  <line x1="440" y1="188" x2="538" y2="190" class="ln" marker-end="url(#a)"/>
  <line x1="440" y1="200" x2="538" y2="248" class="ln" marker-end="url(#a)"/>
  <text x="490" y="120" text-anchor="middle" class="s">provider 어댑터</text>

  <rect x="250" y="290" width="190" height="72" rx="10" fill="#1d2029" stroke="#4fd193" stroke-width="1.5"/>
  <text x="345" y="317" text-anchor="middle" class="t">개인화 ETA 엔진</text>
  <text x="345" y="335" text-anchor="middle" class="s">보행속도 학습 · 경사 페널티</text>
  <text x="345" y="351" text-anchor="middle" class="s">접근성 판정 · UNKNOWN 명시</text>

  <line x1="345" y1="214" x2="345" y2="288" class="ln" marker-end="url(#a)"/>

  <rect x="540" y="298" width="316" height="56" rx="10" class="box" stroke-dasharray="5 4"/>
  <text x="698" y="322" text-anchor="middle" class="t">데이터 원칙</text>
  <text x="698" y="340" text-anchor="middle" class="s">확인 안 된 정보는 이용 가능으로 단정하지 않는다</text>

  <text x="24" y="404" class="m">하나금융 × SKT Tech4Good 2026 · 7인 팀 · 백엔드 전담</text>
</svg>
